<svg xmlns="http://www.w3.org/2000/svg"
	xmlns:xlink="http://www.w3.org/1999/xlink"
	width="400" height="400"
	viewBox="0, 0, 400,400">
	<path stroke="none" fill="#168AEF" d="M222.000 128.568 C 219.773 131.400,217.670 141.246,215.966 156.825 L 215.268 163.205 211.503 163.205 C 197.225 163.205,183.419 181.974,183.376 201.444 C 183.365 206.830,182.812 208.754,181.087 209.413 C 173.672 212.245,173.356 210.744,176.855 189.318 C 180.380 167.728,180.450 167.953,170.190 167.953 L 166.188 167.953 165.252 170.178 C 162.737 176.158,160.791 186.662,159.618 200.593 C 159.069 207.122,158.837 208.135,157.687 209.037 C 155.678 210.613,155.490 210.374,155.490 206.249 C 155.490 201.104,153.491 195.776,146.344 181.864 C 143.214 175.772,140.653 170.323,140.653 169.755 C 140.653 163.778,135.632 161.703,129.065 164.967 C 127.115 165.936,124.937 166.737,124.226 166.747 C 123.143 166.763,122.834 167.272,122.325 169.881 C 121.991 171.595,121.143 175.935,120.441 179.525 C 116.644 198.936,108.347 213.274,101.854 211.644 C 98.144 210.713,97.952 207.972,99.961 184.605 C 101.071 171.685,100.912 170.328,98.003 167.924 C 90.610 161.814,86.915 162.332,78.414 170.669 C 75.944 173.092,73.859 175.074,73.781 175.074 C 73.702 175.074,73.561 172.871,73.466 170.178 L 73.294 165.282 70.888 165.325 C 61.766 165.486,59.021 167.339,58.520 173.671 C 57.526 186.240,56.378 217.149,56.826 219.288 L 57.323 221.662 64.122 221.662 L 70.920 221.662 71.313 218.694 C 71.529 217.062,71.730 212.071,71.758 207.602 C 71.828 196.726,74.909 188.032,80.633 182.564 C 84.214 179.142,84.528 180.115,83.920 192.746 C 82.917 213.584,83.487 217.554,87.943 220.782 C 95.840 226.503,109.864 223.400,116.152 214.540 L 117.415 212.760 120.813 216.183 C 130.797 226.241,149.534 227.771,160.966 219.463 C 161.849 218.821,162.352 219.072,164.594 221.272 C 169.567 226.153,177.816 225.379,184.969 219.360 L 186.724 217.884 189.857 220.067 C 195.474 223.982,202.796 222.956,210.422 217.183 L 214.180 214.338 216.941 217.570 C 223.816 225.617,234.438 225.663,242.548 217.680 L 245.631 214.646 249.360 217.700 C 262.866 228.761,284.323 225.610,291.834 211.461 C 293.716 207.916,296.177 200.753,300.154 187.240 L 302.426 179.525 305.664 179.729 C 310.060 180.005,310.043 179.959,308.632 187.609 C 304.291 211.142,306.426 221.511,316.133 224.039 C 324.871 226.315,329.721 224.839,336.549 217.825 L 341.099 213.151 344.629 216.585 C 358.055 229.641,382.836 227.028,390.470 211.750 C 395.193 202.299,391.517 198.872,384.233 205.935 C 378.974 211.034,378.882 211.036,378.867 206.083 C 378.851 200.672,377.741 197.633,370.578 183.383 C 367.214 176.691,364.199 170.042,363.877 168.606 C 362.707 163.389,357.474 161.742,352.276 164.954 C 351.035 165.721,349.189 166.518,348.173 166.726 C 346.120 167.146,346.422 166.293,344.230 177.885 C 340.654 196.798,333.809 210.324,327.157 211.623 C 321.227 212.782,321.557 199.941,327.957 180.516 C 330.767 171.989,330.922 170.967,329.880 167.893 C 327.847 161.902,324.849 161.130,317.424 164.688 C 311.391 167.580,308.769 167.520,303.909 164.379 C 294.302 158.169,292.472 159.598,291.355 174.184 C 290.271 188.353,285.315 205.509,281.204 209.327 C 276.777 213.439,267.412 213.435,263.010 209.319 C 260.254 206.742,260.324 206.475,265.038 201.526 C 275.183 190.875,278.986 184.494,279.386 177.448 C 280.477 158.211,253.516 157.457,244.225 176.464 C 240.628 183.823,239.252 193.486,240.531 202.396 C 241.053 206.030,239.063 209.006,234.980 210.697 C 227.456 213.814,226.992 206.015,231.796 157.191 C 234.176 133.003,233.916 130.438,228.853 128.139 C 225.402 126.571,223.476 126.692,222.000 128.568 M32.344 142.485 C 12.405 143.705,9.427 144.611,10.340 149.178 C 11.150 153.226,12.335 153.709,21.468 153.709 L 29.674 153.709 29.674 157.133 C 29.674 166.434,26.551 219.698,25.745 224.143 C 25.337 226.391,25.196 226.456,18.882 227.293 C 8.873 228.619,6.892 231.562,11.724 237.927 L 13.259 239.950 30.814 239.539 C 57.746 238.908,56.585 239.215,56.883 232.653 C 57.130 227.212,57.846 227.720,48.427 226.652 L 41.957 225.919 42.320 214.888 C 42.690 203.620,46.141 154.254,46.590 153.806 C 46.726 153.669,50.120 153.200,54.131 152.763 C 62.635 151.835,63.508 151.267,63.492 146.670 C 63.477 142.045,63.740 142.147,51.506 142.057 C 45.537 142.013,36.914 142.206,32.344 142.485 M171.933 149.564 C 167.238 153.258,169.442 160.237,175.304 160.237 C 181.465 160.237,184.299 154.507,180.178 150.386 C 177.742 147.950,174.408 147.618,171.933 149.564 M266.648 176.760 C 266.407 182.032,256.513 197.591,255.057 194.988 C 254.202 193.461,256.094 183.128,257.912 179.391 C 260.890 173.268,266.890 171.462,266.648 176.760 M212.076 178.333 C 218.005 184.262,209.153 205.341,200.735 205.341 C 198.634 205.341,198.216 204.567,198.228 200.693 C 198.263 189.716,207.899 174.156,212.076 178.333 M133.011 189.463 C 139.757 202.827,137.624 212.559,129.477 205.586 C 125.409 202.104,125.401 202.034,127.982 193.406 C 130.630 184.554,130.561 184.609,133.011 189.463 M356.300 188.938 C 363.150 200.628,361.437 211.912,353.676 206.215 C 348.691 202.555,348.681 201.690,353.456 186.461 C 353.810 185.333,354.581 186.004,356.300 188.938"/>
</svg>